<svg width="183" height="62" viewBox="0 0 183 62" fill="none" xmlns="http://www.w3.org/2000/svg">
<path d="M12.3766 54.3841C10.2081 52.4017 9.57507 48.2368 10.4785 45.2195C12.0451 47.1217 14.2156 47.7246 16.4638 48.0644C19.9346 48.5896 23.3432 48.3932 26.5675 46.8068C26.9363 46.6254 27.2772 46.3835 27.6802 46.1392C27.9827 47.0166 28.0615 47.9027 27.9558 48.8046C27.6989 51.0011 26.6058 52.6979 24.8673 53.9838C24.1721 54.4984 23.4365 54.9582 22.7185 55.4435C20.5127 56.9339 19.916 58.682 20.7448 61.2251C20.7645 61.287 20.7821 61.3489 20.8267 61.5001C19.7005 60.9961 18.8779 60.2622 18.251 59.2974C17.589 58.2788 17.274 57.1523 17.2575 55.9336C17.2492 55.3403 17.2492 54.7417 17.1694 54.1571C16.9746 52.7315 16.3053 52.0931 15.0444 52.0561C13.7504 52.0187 12.7268 52.8184 12.4553 54.0784C12.4346 54.1748 12.4045 54.2704 12.3745 54.3827L12.3766 54.3841Z" fill="white"/>
<path d="M0 44.7163C0 44.7163 6.4212 41.5885 12.8603 41.5885L17.7153 26.5634C17.897 25.8368 18.4277 25.343 19.0269 25.343C19.626 25.343 20.1567 25.8368 20.3385 26.5634L25.1934 41.5885C32.8195 41.5885 38.0539 44.7163 38.0539 44.7163C38.0539 44.7163 27.1468 15.0038 27.1255 14.9442C26.8124 14.0658 26.284 13.5 25.5715 13.5H12.4834C11.7709 13.5 11.2638 14.0658 10.9294 14.9442C10.9058 15.0027 0 44.7163 0 44.7163Z" fill="white"/>
<path d="M67.7006 35.159C67.7006 37.7919 64.4256 39.3644 59.891 39.3644C56.9395 39.3644 55.896 38.633 55.896 37.0971C55.896 35.4881 57.1915 34.7202 60.1425 34.7202C62.806 34.7202 65.0731 34.7567 67.7006 35.0859V35.159ZM67.7366 31.9044C66.1171 31.5388 63.6696 31.3194 60.7545 31.3194C52.2609 31.3194 48.2664 33.3306 48.2664 38.0113C48.2664 42.8749 51.0014 44.74 57.3355 44.74C62.698 44.74 66.3326 43.3869 67.6646 40.0592H67.8801C67.8441 40.8637 67.8086 41.6682 67.8086 42.2898C67.8086 44.0085 68.0961 44.1548 69.4996 44.1548H76.1217C75.7617 43.1309 75.5462 40.242 75.5462 37.7553C75.5462 35.0859 75.6537 33.0746 75.6537 30.3686C75.6537 24.8468 72.3432 21.3362 61.978 21.3362C57.5155 21.3362 52.5489 22.1041 48.7704 23.2377C49.1299 24.737 49.6339 27.7722 49.8859 29.7469C53.1609 28.211 57.8035 27.5528 61.4025 27.5528C66.3686 27.5528 67.7366 28.6864 67.7366 30.9902V31.9044Z" fill="white"/>
<path d="M85.9061 36.6947C85.0066 36.8044 83.7826 36.8044 82.523 36.8044C81.1915 36.8044 79.968 36.7678 79.14 36.6581C79.14 36.9507 79.104 37.2798 79.104 37.5723C79.104 42.1434 82.0915 44.8127 92.6002 44.8127C102.497 44.8127 105.7 42.1799 105.7 37.5357C105.7 33.1475 103.577 30.99 94.1837 30.5146C86.8776 30.1855 86.2301 29.381 86.2301 28.4668C86.2301 27.4063 87.1656 26.8578 92.0602 26.8578C97.1347 26.8578 98.5022 27.5526 98.5022 29.0154V29.3444C99.2222 29.3079 100.518 29.2713 101.849 29.2713C103.109 29.2713 104.476 29.3079 105.268 29.381C105.268 29.0519 105.304 28.7594 105.304 28.5034C105.304 23.1278 100.841 21.3726 92.2042 21.3726C82.487 21.3726 79.212 23.7495 79.212 28.3937C79.212 32.5625 81.8395 35.1588 91.1606 35.5611C98.0342 35.7805 98.7902 36.5484 98.7902 37.6089C98.7902 38.7425 97.6747 39.2545 92.8522 39.2545C87.3096 39.2545 85.9061 38.4865 85.9061 36.9141V36.6947Z" fill="white"/>
<path d="M117.578 17.4231C114.951 19.8732 110.237 22.3233 107.61 22.9815C107.646 24.3345 107.646 26.8212 107.646 28.1742L110.057 28.2108C110.021 30.8071 109.985 33.952 109.985 36.0364C109.985 40.8999 112.54 44.5568 120.493 44.5568C123.84 44.5568 126.072 44.1911 128.843 43.606C128.555 41.8141 128.231 39.0715 128.123 36.9872C126.468 37.5357 124.38 37.8282 122.077 37.8282C118.874 37.8282 117.578 36.9506 117.578 34.4274C117.578 32.2333 117.578 30.1854 117.614 28.2839C121.717 28.3205 125.82 28.3936 128.231 28.4667C128.195 26.5652 128.267 23.8225 128.375 21.9941C124.884 22.0673 120.961 22.1039 117.722 22.1039C117.758 20.4949 117.794 18.959 117.83 17.4231H117.578Z" fill="white"/>
<path d="M139.073 27.0773C139.109 25.1757 139.145 23.5668 139.181 21.9943H131.947C132.055 25.1392 132.055 28.3572 132.055 33.0745C132.055 37.7918 132.019 41.0464 131.947 44.1547H140.225C140.081 41.9606 140.045 38.2672 140.045 35.1223C140.045 30.1491 142.06 28.7229 146.631 28.7229C148.754 28.7229 150.266 28.9789 151.597 29.4543C151.633 27.5893 151.993 23.969 152.209 22.36C150.841 21.9578 149.33 21.7018 147.494 21.7018C143.572 21.6652 140.693 23.2742 139.361 27.1139L139.073 27.0773Z" fill="white"/>
<path d="M175.108 32.9282C175.108 36.9142 172.229 38.7791 167.694 38.7791C163.196 38.7791 160.317 37.0238 160.317 32.9282C160.317 28.8325 163.232 27.2967 167.694 27.2967C172.193 27.2967 175.108 28.9423 175.108 32.9282ZM182.629 32.7454C182.629 24.81 176.439 21.2629 167.694 21.2629C158.913 21.2629 152.939 24.81 152.939 32.7454C152.939 40.6441 158.517 44.8862 167.658 44.8862C176.871 44.8862 182.629 40.6441 182.629 32.7454Z" fill="white"/>
</svg>
