<svg width="203" height="25" viewBox="0 0 203 25" fill="none" xmlns="http://www.w3.org/2000/svg">
<path d="M197.761 12.1865V10.4722H199.475V5.32938H197.761V3.61509H189.189V12.1865H197.761ZM185.761 24.1865V0.186523H199.475V1.90081H201.189V3.61509H202.904V12.1865H201.189V13.9008H199.475V15.6151H197.761V17.3294H199.475V19.0437H201.189V20.758H202.904V24.1865H199.475V22.4722H197.761V20.758H196.046V19.0437H194.332V17.3294H192.618V15.6151H189.189V24.1865H185.761Z" fill="white"/>
<path d="M168.618 24.1865V22.4722H166.903V20.758H165.189V3.61509H166.903V1.90081H168.618V0.186523H178.903V1.90081H180.618V3.61509H182.332V7.04367H178.903V5.32938H177.189V3.61509H170.332V5.32938H168.618V19.0437H170.332V20.758H177.189V19.0437H178.903V17.3294H182.332V20.758H180.618V22.4722H178.903V24.1865H168.618Z" fill="white"/>
<path d="M151.475 24.1865V20.758H149.761V15.6151H148.046V10.4722H146.332V5.32938H144.618V0.186523H148.046V5.32938H149.761V10.4722H151.475V15.6151H154.904V10.4722H156.618V5.32938H158.332V0.186523H161.761V5.32938H160.046V10.4722H158.332V15.6151H156.618V20.758H154.904V24.1865H151.475Z" fill="white"/>
<path d="M103.475 24.1865V5.32935H106.904V7.04363H108.618V5.32935H117.189V7.04363H118.904V8.75792H120.618V13.9008H117.189V10.4722H115.475V8.75792H108.618V10.4722H106.904V24.1865H103.475Z" fill="white"/>
<path d="M96.6178 13.9008V10.4722H94.9036V8.75792H88.0464V10.4722H86.3321V13.9008H96.6178ZM86.3321 24.1865V22.4722H84.6179V20.7579H82.9036V8.75792H84.6179V7.04363H86.3321V5.32935H96.6178V7.04363H98.3321V8.75792H100.046V17.3293H86.3321V19.0436H88.0464V20.7579H100.046V24.1865H86.3321Z" fill="white"/>
<path d="M69.1894 24.1865V22.4722H67.4751V20.758H65.7608V8.75795H62.3323V5.32938H65.7608V0.186523H69.1894V5.32938H74.3323V8.75795H69.1894V19.0437H70.9037V20.758H74.3323V19.0437H76.0466V17.3294H79.4751V20.758H77.7608V22.4722H76.0466V24.1865H69.1894Z" fill="white"/>
<path d="M48.6179 24.1865V22.4722H46.9036V20.758H45.1893V8.75795H41.7607V5.32938H45.1893V0.186523H48.6179V5.32938H53.7607V8.75795H48.6179V19.0437H50.3322V20.758H53.7607V19.0437H55.475V17.3294H58.9036V20.758H57.1893V22.4722H55.475V24.1865H48.6179Z" fill="white"/>
<path d="M34.9035 13.9008V10.4722H33.1892V8.75792H26.3321V10.4722H24.6178V13.9008H34.9035ZM24.6178 24.1865V22.4722H22.9035V20.7579H21.1892V8.75792H22.9035V7.04363H24.6178V5.32935H34.9035V7.04363H36.6178V8.75792H38.3321V17.3293H24.6178V19.0436H26.3321V20.7579H38.3321V24.1865H24.6178Z" fill="white"/>
<path d="M12.6179 20.758V19.0437H14.3322V15.6151H12.6179V13.9008H4.04649V20.758H12.6179ZM10.9036 10.4722V8.75795H12.6179V5.32938H10.9036V3.61509H4.04649V10.4722H10.9036ZM0.61792 24.1865V0.186523H12.6179V1.90081H14.3322V3.61509H16.0465V10.4722H14.3322V12.1865H16.0465V13.9008H17.7608V20.758H16.0465V22.4722H14.3322V24.1865H0.61792Z" fill="white"/>
</svg>
