<svg width="186" height="44" viewBox="0 0 186 44" fill="none" xmlns="http://www.w3.org/2000/svg">
<path d="M25.6571 0L14.34 19.6007C18.6341 18.2769 23.2537 18.0807 27.7317 19.1368L31.5564 20.0396L27.958 35.2979L24.1278 34.3952C21.1856 33.7011 18.1186 34.3888 15.7465 36.264C14.56 37.2024 13.6253 38.3806 12.9846 39.7024L9.44432 37.9896C10.34 36.1398 11.6495 34.4897 13.3034 33.1803C16.6121 30.5614 20.9259 29.5996 25.033 30.5686L26.8268 22.964C20.4013 21.4492 13.6293 22.9576 8.45286 27.0549C3.27642 31.1518 0.25293 37.3974 0.25293 43.9985L51.0618 44L25.6571 0Z" fill="white"/>
<path d="M61.1592 39.2245V9.34497H73.7928C75.8516 9.34497 77.6163 9.69256 79.0869 10.3877C80.5575 11.0829 81.6805 12.0856 82.4559 13.3958C83.2313 14.6792 83.619 16.2433 83.619 18.0883C83.619 19.3984 83.258 20.6551 82.5361 21.8583C81.8142 23.0348 80.6244 24.0241 78.9666 24.8262V21.7781C80.5441 22.3931 81.7607 23.1283 82.6163 23.984C83.4719 24.8396 84.0602 25.7754 84.381 26.7914C84.7019 27.7807 84.8623 28.8235 84.8623 29.9198C84.8623 32.8609 83.8864 35.147 81.9345 36.778C79.9826 38.409 77.2687 39.2245 73.7928 39.2245H61.1592ZM67.3757 33.8101H74.5147C75.7714 33.8101 76.7741 33.4492 77.5228 32.7272C78.2714 32.0053 78.6457 31.0695 78.6457 29.9198C78.6457 28.7433 78.2714 27.7941 77.5228 27.0722C76.7741 26.3503 75.7714 25.9893 74.5147 25.9893H67.3757V33.8101ZM67.3757 20.5749H74.234C75.1966 20.5749 75.9586 20.3075 76.5201 19.7727C77.1083 19.2112 77.4024 18.476 77.4024 17.5669C77.4024 16.6578 77.1083 15.9359 76.5201 15.4011C75.9586 14.8396 75.1966 14.5589 74.234 14.5589H67.3757V20.5749ZM89.1897 39.2245V17.3265H95.2057V39.2245H89.1897ZM89.1897 15.361V9.34497H95.2057V15.361H89.1897ZM110.8 39.7052C108.634 39.7052 106.656 39.2106 104.864 38.2213C103.1 37.232 101.683 35.8817 100.613 34.1705C99.5703 32.4325 99.0489 30.4673 99.0489 28.2748C99.0489 26.0556 99.5703 24.0903 100.613 22.3791C101.683 20.6679 103.1 19.3176 104.864 18.3283C106.656 17.339 108.634 16.8444 110.8 16.8444C112.966 16.8444 114.931 17.339 116.696 18.3283C118.461 19.3176 119.864 20.6679 120.907 22.3791C121.977 24.0903 122.511 26.0556 122.511 28.2748C122.511 30.4673 121.977 32.4325 120.907 34.1705C119.864 35.8817 118.461 37.232 116.696 38.2213C114.931 39.2106 112.966 39.7052 110.8 39.7052ZM110.8 34.2908C111.896 34.2908 112.846 34.0368 113.648 33.5288C114.477 33.0208 115.118 32.3122 115.573 31.4031C116.054 30.494 116.295 29.4513 116.295 28.2748C116.295 27.0983 116.054 26.0689 115.573 25.1866C115.118 24.2775 114.477 23.5689 113.648 23.0609C112.846 22.5262 111.896 22.2588 110.8 22.2588C109.704 22.2588 108.741 22.5262 107.913 23.0609C107.084 23.5689 106.429 24.2775 105.947 25.1866C105.493 26.0689 105.265 27.0983 105.265 28.2748C105.265 29.4513 105.493 30.494 105.947 31.4031C106.429 32.3122 107.084 33.0208 107.913 33.5288C108.741 34.0368 109.704 34.2908 110.8 34.2908ZM126.355 39.224V17.3259H131.97V22.6601L131.368 21.7778C131.689 20.0933 132.464 18.85 133.694 18.0479C134.924 17.2457 136.395 16.8447 138.106 16.8447C139.924 16.8447 141.515 17.3126 142.879 18.2484C144.269 19.1575 145.138 20.3874 145.486 21.9382L143.761 22.0986C144.483 20.3072 145.513 18.9837 146.849 18.1281C148.186 17.2725 149.751 16.8447 151.542 16.8447C153.119 16.8447 154.51 17.1922 155.713 17.8874C156.943 18.5826 157.906 19.5585 158.601 20.8152C159.296 22.0452 159.644 23.489 159.644 25.1468V39.2242H153.627V26.4302C153.627 25.5746 153.467 24.8393 153.146 24.2243C152.852 23.6093 152.424 23.1281 151.863 22.7805C151.301 22.4329 150.619 22.2591 149.817 22.2591C149.042 22.2591 148.36 22.4329 147.772 22.7805C147.21 23.1281 146.769 23.6093 146.448 24.2243C146.154 24.8393 146.007 25.5746 146.007 26.4302V39.2242H139.991V26.4302C139.991 25.5746 139.831 24.8393 139.51 24.2243C139.216 23.6093 138.788 23.1281 138.226 22.7805C137.665 22.4329 136.983 22.2591 136.181 22.2591C135.406 22.2591 134.724 22.4329 134.136 22.7805C133.574 23.1281 133.133 23.6093 132.812 24.2243C132.518 24.8393 132.371 25.5746 132.371 26.4302V39.2242L126.355 39.224ZM174.961 39.7052C172.635 39.7052 170.616 39.1972 168.905 38.1812C167.193 37.1384 165.87 35.748 164.934 34.0101C163.998 32.2721 163.53 30.347 163.53 28.2347C163.53 26.0422 164.012 24.0903 164.974 22.3791C165.963 20.6679 167.287 19.3176 168.945 18.3283C170.603 17.339 172.474 16.8444 174.56 16.8444C176.298 16.8444 177.835 17.1251 179.172 17.6866C180.509 18.2214 181.632 18.9834 182.541 19.9727C183.477 20.962 184.185 22.1117 184.667 23.4219C185.148 24.7053 185.389 26.109 185.389 27.6331C185.389 28.0609 185.362 28.4887 185.308 28.9165C185.282 29.3176 185.215 29.6652 185.108 29.9593H168.704V25.5475H181.698L178.851 27.6331C179.118 26.4834 179.105 25.4673 178.811 24.585C178.517 23.6759 177.995 22.9673 177.247 22.4593C176.525 21.9246 175.629 21.6572 174.559 21.6572C173.517 21.6572 172.621 21.9112 171.872 22.4192C171.124 22.9272 170.562 23.6759 170.188 24.6652C169.813 25.6545 169.666 26.8577 169.747 28.2748C169.64 29.5047 169.787 30.5876 170.188 31.5234C170.589 32.4593 171.204 33.1946 172.033 33.7293C172.862 34.2373 173.864 34.4914 175.041 34.4914C176.11 34.4914 177.019 34.2775 177.768 33.8496C178.543 33.4218 179.145 32.8336 179.573 32.0849L184.386 34.371C183.958 35.4405 183.276 36.3764 182.34 37.1785C181.431 37.9806 180.348 38.609 179.091 39.0635C177.835 39.4913 176.458 39.7052 174.96 39.7052H174.961Z" fill="white"/>
</svg>
