<svg width="113" height="25" viewBox="0 0 113 25" fill="none" xmlns="http://www.w3.org/2000/svg">
<path d="M109.849 11.4837L110.977 12.6117L109.849 13.7157V13.6917H109.417H109.369H106.273H105.769H105.601L104.953 12.5877L105.601 11.4837H105.769H106.273H106.585H109.849ZM98.3285 12.5877L99.4805 11.4597V11.4837H102.745H103.729L104.377 12.5877L103.729 13.6917H99.9605H99.8885H99.4805V13.7157L98.3285 12.5877ZM111.313 12.9477L111.433 12.8517H112.081V22.7637L111.337 23.5077L109.849 22.0197V21.8757V19.3557V14.4117L111.313 12.9477ZM111.337 1.66772L112.081 2.41173V12.3477H111.433L111.313 12.2517L109.849 10.7877V10.0197V5.81972V3.29972V3.15572L111.337 1.66772ZM97.9925 12.2277L97.8965 12.3477H97.2485V2.41173L97.9925 1.66772L99.4805 3.15572V3.29972V5.81972V10.7637L97.9925 12.2277Z" fill="white"/>
<path d="M91.7189 12.9477L91.8389 12.8517H92.4869V22.7637L91.7429 23.5077L90.2549 22.0197V21.8757V19.3557V14.4117L91.7189 12.9477ZM91.7429 1.66772L92.4869 2.41173V12.3477H91.8389L91.7189 12.2517L90.2549 10.7877V10.0197V5.81972V3.29972V3.15572L91.7429 1.66772Z" fill="white"/>
<path d="M70.661 11.4836L71.789 12.6116L70.661 13.7156V13.6916H70.229H70.181H67.085H66.581H66.413L65.765 12.5876L66.413 11.4836H66.581H67.085H67.397H70.661ZM59.141 1.33165L59.885 0.587646H71.069L71.813 1.33165L70.325 2.81964H69.845H66.581H64.373H61.109H60.629L59.141 1.33165ZM72.125 12.9476L72.245 12.8516H72.893V22.7636L72.149 23.5076L70.661 22.0196V21.8756V19.3556V14.4116L72.125 12.9476ZM71.813 23.8436L71.069 24.5876H59.885L59.141 23.8436L60.629 22.3556H61.109H64.373H66.581H69.845H70.325L71.813 23.8436ZM58.805 12.2276L58.709 12.3476H58.061V2.41165L58.805 1.66765L60.293 3.15564V3.29965V5.81964V10.7636L58.805 12.2276ZM58.805 23.5076L58.061 22.7636V12.8276H58.709L58.805 12.9476L60.293 14.4116V19.3556V21.8756V22.0196L58.805 23.5076Z" fill="white"/>
<path d="M51.0673 11.4836L52.1953 12.6116L51.0673 13.7156V13.6916H50.6353H50.5873H47.4913H46.9873H46.8193L46.1713 12.5876L46.8193 11.4836H46.9873H47.4913H47.8033H51.0673ZM39.5473 12.5876L40.6993 11.4596V11.4836H43.9633H44.9473L45.5953 12.5876L44.9473 13.6916H41.1793H41.1073H40.6993V13.7156L39.5473 12.5876ZM39.5473 1.33165L40.2913 0.587646H51.4753L52.2193 1.33165L50.7313 2.81964H50.2513H46.9873H44.7793H41.5153H41.0353L39.5473 1.33165ZM52.2193 23.8436L51.4753 24.5876H40.2913L39.5473 23.8436L41.0353 22.3556H41.5153H44.7793H46.9873H50.2513H50.7313L52.2193 23.8436ZM39.2113 12.2276L39.1153 12.3476H38.4673V2.41165L39.2113 1.66765L40.6993 3.15564V3.29965V5.81964V10.7636L39.2113 12.2276ZM39.2113 23.5076L38.4673 22.7636V12.8276H39.1153L39.2113 12.9476L40.6993 14.4116V19.3556V21.8756V22.0196L39.2113 23.5076Z" fill="white"/>
<path d="M31.4735 11.4836L32.6015 12.6116L31.4735 13.7156V13.6916H31.0415H30.9935H27.8975H27.3935H27.2255L26.5775 12.5876L27.2255 11.4836H27.3935H27.8975H28.2095H31.4735ZM19.9535 12.5876L21.1055 11.4596V11.4836H24.3695H25.3535L26.0015 12.5876L25.3535 13.6916H21.5855H21.5135H21.1055V13.7156L19.9535 12.5876ZM27.8975 14.1956H28.4975L30.9935 18.4916V21.8756H30.3695L27.8975 17.6036V14.1956ZM19.9535 1.33165L20.6975 0.587646H31.8815L32.6255 1.33165L31.1375 2.81964H30.6575H27.3935H25.1855H21.9215H21.4415L19.9535 1.33165ZM24.6815 10.9796H24.0815L21.5855 6.68365V3.29965H22.2095L24.6815 7.57165V10.9796ZM32.9375 12.9476L33.0575 12.8516H33.7055V22.7636L32.9615 23.5076L31.4735 22.0196V21.8756V19.3556V14.4116L32.9375 12.9476ZM32.6255 23.8436L31.8815 24.5876H20.6975L19.9535 23.8436L21.4415 22.3556H21.9215H25.1855H27.3935H30.6575H31.1375L32.6255 23.8436ZM19.6175 12.2276L19.5215 12.3476H18.8735V2.41165L19.6175 1.66765L21.1055 3.15564V3.29965V5.81964V10.7636L19.6175 12.2276Z" fill="white"/>
<path d="M5.59186 8.43565V3.29965H7.79986V3.56365V8.43565V10.1636L6.69586 12.0836L5.59186 10.1636V8.43565ZM7.79986 20.8196V21.8756H5.59186V16.7396V15.0116L6.69586 13.0916L7.79986 15.0116V16.7396V20.8196ZM0.359863 1.33165L1.10386 0.587646H12.2879L13.0319 1.33165L11.5439 2.81964H11.0639H7.79986H5.59186H2.32786H1.84786L0.359863 1.33165ZM13.3439 12.9476L13.4639 12.8516H14.1119V22.7636L13.3679 23.5076L11.8799 22.0196V21.8756V19.3556V14.4116L13.3439 12.9476ZM13.0319 23.8436L12.2879 24.5876H1.10386L0.359863 23.8436L1.84786 22.3556H2.32786H5.59186H7.79986H11.0639H11.5439L13.0319 23.8436ZM13.3679 1.66765L14.1119 2.41165V12.3476H13.4639L13.3439 12.2516L11.8799 10.7876V10.0196V5.81964V3.29965V3.15564L13.3679 1.66765Z" fill="white"/>
</svg>
