<svg width="308" height="25" viewBox="0 0 308 25" fill="none" xmlns="http://www.w3.org/2000/svg">
<path d="M307.459 23.7959H302.948V20.6593C301.821 23.4082 300.164 24.113 294.843 24.113C290.226 24.113 287.688 23.5492 286.314 22.1747C285.151 21.0117 284.693 19.2496 284.693 15.9016C284.693 11.2144 285.362 9.34651 287.371 8.18352C288.922 7.3377 291.177 6.95003 294.913 6.95003C297.592 6.95003 299.741 7.30246 300.799 7.86633C301.644 8.32448 302.173 8.85312 302.807 9.94563V0.21875H307.459V23.7959ZM296.816 10.4743C292.658 10.4743 291.107 10.7562 290.367 11.602C289.697 12.3774 289.415 13.5403 289.415 15.5844C289.415 17.7694 289.733 18.9324 290.473 19.602C290.931 19.9897 291.812 20.3069 292.834 20.4126C293.081 20.4478 296.393 20.5536 296.851 20.5536C299.812 20.5536 301.257 20.2364 301.962 19.4258C302.525 18.7915 302.878 17.3818 302.878 15.7606C302.878 11.2496 301.997 10.4743 296.816 10.4743Z" fill="white"/>
<path d="M280.871 16.6769V17.7342C280.871 20.765 280.589 21.8223 279.567 22.7386C278.439 23.7254 276.712 24.113 273.364 24.113C269.593 24.113 267.796 23.6549 266.563 22.3862C265.752 21.5756 265.294 19.8135 265.4 18.2276L265.435 17.9456L265.47 10.58H262.016V7.26719H265.505V3.42578H270.228L270.193 7.26719H280.73V10.58H270.193L270.122 17.1703C270.087 20.0954 270.721 20.6593 273.964 20.6593C275.338 20.6593 276.184 20.4126 276.677 19.9544C277.1 19.4963 277.171 19.0029 277.171 17.3113V16.6769H280.871Z" fill="white"/>
<path d="M237.472 23.7957L245.543 15.1261L238.248 7.26709H244.345L249.032 12.6592L253.825 7.26709H259.816L252.627 14.9499L260.732 23.7957H254.741L249.032 17.3112L243.358 23.7957H237.472Z" fill="white"/>
<path d="M209.588 23.7959V0.289307H234.574V4.41266H214.944V9.98095H233.623V13.6814H214.944V19.6726H234.786V23.7959H209.588Z" fill="white"/>
<path d="M195.618 16.4303H178.596C178.632 18.3334 178.949 19.5316 179.583 20.1307C180.288 20.7651 182.226 21.047 185.68 21.047C189.557 21.047 190.755 20.5184 191.002 18.6506H195.583C195.513 20.4479 195.019 21.6462 193.997 22.492C192.552 23.655 190.226 24.0779 185.328 24.0779C181.557 24.0779 178.596 23.7607 177.328 23.1968C174.79 22.0338 173.839 20.025 173.839 15.6197C173.839 12.0602 174.438 10.0514 175.847 8.74747C177.328 7.37302 179.477 6.98535 185.222 6.98535C190.543 6.98535 192.623 7.47874 194.032 9.02941C195.195 10.3686 195.618 11.9898 195.618 15.3378V16.4303ZM178.596 13.6814H191.002C191.002 12.7299 190.896 12.2012 190.579 11.6021C190.332 11.1439 189.98 10.7915 189.627 10.6153C188.817 10.2629 187.266 10.0162 185.539 10.0162C181.98 10.0162 180.958 10.1219 179.971 10.6506C179.125 11.1087 178.596 12.2012 178.596 13.4699V13.6814Z" fill="white"/>
<path d="M164.423 23.7959V0.21875H169.075V23.7959H164.423Z" fill="white"/>
<path d="M154.407 23.7959V7.26721H159.059V23.7959H154.407ZM154.407 4.09541V0.21875H159.059V4.09541H154.407Z" fill="white"/>
<path d="M150.054 16.6769V17.7342C150.054 20.765 149.772 21.8223 148.75 22.7386C147.623 23.7254 145.896 24.113 142.548 24.113C138.777 24.113 136.979 23.6549 135.746 22.3862C134.935 21.5756 134.477 19.8135 134.583 18.2276L134.618 17.9456L134.653 10.58H131.2V7.26719H134.689V3.42578H139.411L139.376 7.26719H149.913V10.58H139.376L139.305 17.1703C139.27 20.0954 139.905 20.6593 143.147 20.6593C144.521 20.6593 145.367 20.4126 145.861 19.9544C146.283 19.4963 146.354 19.0029 146.354 17.3113V16.6769H150.054Z" fill="white"/>
<path d="M122.701 11.8839V11.7429C122.701 10.3685 121.608 10.0513 116.85 10.0513C112.445 10.0513 111.176 10.5094 111.176 12.0248C111.176 13.4345 111.952 13.6812 116.604 13.6812H119.176C123.476 13.6812 125.132 13.8927 126.507 14.668C127.705 15.3376 128.269 16.6063 128.269 18.6152C128.269 21.646 127.247 23.0204 124.463 23.6548C123.053 23.972 120.48 24.113 116.145 24.113C110.471 24.113 108.498 23.7253 107.264 22.3156C106.454 21.4345 106.172 20.4478 106.172 18.6856V18.5094H111.035V18.6856C111.141 20.7649 111.775 20.9764 117.767 21.0116C121.784 20.9412 121.784 20.9412 122.701 20.5182C123.194 20.2715 123.511 19.6724 123.511 19.0028C123.511 17.3817 122.56 16.994 118.401 17.0645C116.78 17.0997 112.833 17.0293 111.916 16.994C107.828 16.7121 106.383 15.4786 106.383 12.2715C106.383 9.41691 107.405 8.04246 110.049 7.44334C111.529 7.12616 113.855 6.94995 117.203 6.94995C122.313 6.94995 124.286 7.19665 125.767 8.00722C126.93 8.64158 127.529 9.91031 127.529 11.7781V11.8839H122.701Z" fill="white"/>
<path d="M90.7113 6.94995C96.5263 6.94995 99.0637 7.44334 100.614 8.88828C101.848 10.0513 102.236 11.6724 102.236 15.831C102.236 18.7561 101.672 21.1174 100.755 22.0337C100.156 22.6328 99.1342 23.1967 98.2884 23.4434C96.9844 23.831 93.7069 24.113 90.5351 24.113C81.1606 24.113 79.469 22.809 79.469 15.4786C79.469 11.7429 79.9624 9.91031 81.2311 8.78255C81.8302 8.25392 82.7818 7.79577 83.7333 7.54907C84.9668 7.23189 88.3501 6.94995 90.7113 6.94995ZM91.5219 10.4742C87.3985 10.4742 85.8831 10.7561 85.1078 11.6724C84.4382 12.4125 84.1915 13.505 84.1915 15.5843C84.1915 19.8486 85.1078 20.5887 90.3236 20.5887C93.6716 20.5887 95.2223 20.4125 96.0329 19.9544C97.1254 19.32 97.5131 18.1923 97.5131 15.69C97.5131 11.2495 96.632 10.4742 91.5219 10.4742Z" fill="white"/>
<path d="M57.5942 23.7958V7.26713H62.07V10.7561C62.8101 8.99401 63.233 8.39489 64.0788 7.90149C65.1713 7.30237 66.8982 6.94995 69.048 6.94995C72.3608 6.94995 74.4401 7.72528 75.3211 9.27594C75.885 10.2627 76.0965 11.4257 76.0965 13.3993C76.0965 13.5755 76.0965 13.9984 76.0612 14.4566H71.6559C71.6559 13.0116 71.5854 12.5182 71.3035 11.9191C70.8806 11.1085 69.5766 10.6504 67.6383 10.6504C63.7264 10.6504 62.2462 11.9544 62.2462 15.3024V23.7958H57.5942Z" fill="white"/>
<path d="M52.2457 7.26709V23.7957H47.6994V20.201C46.6422 23.3728 44.9153 24.2186 39.6642 24.2186C35.7523 24.2186 33.6377 23.6195 32.2633 22.1041C31.206 20.9059 30.8184 19.4609 30.8184 16.712V7.26709H35.4703V16.5006C35.4703 19.6724 36.5629 20.4477 41.0739 20.4477C45.9373 20.4477 47.5937 19.2142 47.5937 15.6195V7.26709H52.2457Z" fill="white"/>
<path d="M0.783691 23.7959V0.289307H25.7705V4.41266H6.14052V9.98095H24.819V13.6814H6.14052V19.6726H25.982V23.7959H0.783691Z" fill="white"/>
</svg>
