<svg width="132" height="25" viewBox="0 0 132 25" fill="none" xmlns="http://www.w3.org/2000/svg">
<path d="M127.791 19.5682H131.108V20.2101C131.108 23.7049 129.182 24.9887 123.94 24.9887C117.556 24.9887 116.13 23.3839 116.13 16.3587C116.13 9.58306 117.663 7.90698 123.868 7.90698C128.041 7.90698 129.788 8.79851 130.644 11.2948C131.036 12.5073 131.108 13.4345 131.108 17.0362H119.482V17.5355C119.482 21.5652 120.231 22.4211 123.761 22.4211C127.256 22.4211 127.791 22.0288 127.791 19.5682ZM119.518 14.8252H127.827C127.791 12.6856 127.755 12.4716 127.506 11.8297C127.114 10.7599 126.186 10.4033 123.797 10.4033C120.16 10.4033 119.553 11.0452 119.518 14.8252Z" fill="white"/>
<path d="M112.563 0.98877V24.7748H109.282V0.98877H112.563Z" fill="white"/>
<path d="M105.18 0.98877V4.09129H101.899V0.98877H105.18ZM105.18 8.121V24.7748H101.899V8.121H105.18Z" fill="white"/>
<path d="M98.6828 8.12094V10.6885H92.2995V19.8891C92.2995 21.8861 92.6917 22.3854 94.2965 22.3854C96.0795 22.3854 96.5075 21.8148 96.5075 19.3899C96.5075 19.1402 96.5075 18.9976 96.4718 18.6053H99.3247C99.3604 19.0689 99.3604 19.6038 99.3604 19.7465C99.3604 23.6335 98.0052 24.9887 94.1182 24.9887C91.4079 24.9887 90.0171 24.3824 89.3752 22.8847C89.0899 22.2784 89.0186 21.7078 89.0186 20.2101V10.6885H86.772V8.12094H89.0186V4.26953H92.2995V8.12094H98.6828Z" fill="white"/>
<path d="M84.4532 12.6143H81.2436C81.101 10.5102 80.7801 10.2963 77.4636 10.2963C74.1471 10.2963 73.6478 10.5816 73.6478 12.5786C73.6478 13.8624 73.9331 14.4686 74.6463 14.6826C75.0386 14.8252 75.0386 14.8252 77.9985 14.9679C82.2065 15.1819 82.6344 15.2532 83.526 15.9664C84.4888 16.7153 84.9881 18.0347 84.9881 19.8178C84.9881 21.6009 84.4888 22.956 83.5616 23.7405C82.4561 24.6677 80.8514 24.9887 77.4279 24.9887C72.0074 24.9887 70.26 23.8119 70.26 20.2101V19.4969H73.6478C73.6122 19.7465 73.6122 20.0318 73.6122 20.1388C73.6122 22.1358 74.3254 22.5994 77.5349 22.5994C80.9227 22.5994 81.7072 22.1001 81.7072 19.9961C81.7072 18.2131 81.208 17.7138 79.3179 17.6781C76.6434 17.6425 74.1471 17.4642 73.1486 17.1789C71.1872 16.6796 70.4027 15.3958 70.4027 12.7569C70.4027 8.90549 71.9004 7.90698 77.6062 7.90698C83.0267 7.90698 84.4888 8.90549 84.4532 12.6143Z" fill="white"/>
<path d="M59.7857 7.90698C63.1736 7.90698 64.6 8.22793 65.7055 9.19078C66.9893 10.3319 67.4886 12.222 67.4886 16.109C67.4886 23.5266 66.2404 24.9887 59.8214 24.9887C56.1127 24.9887 54.3296 24.4181 53.3667 22.9203C52.5109 21.6365 52.2256 19.9605 52.2256 16.1804C52.2256 9.40475 53.5807 7.90698 59.7857 7.90698ZM59.8571 10.5459C56.1127 10.5459 55.6134 11.2235 55.6134 16.2874C55.6134 21.7435 56.0413 22.3497 59.8927 22.3497C63.6015 22.3497 64.1007 21.6365 64.1007 16.323C64.1007 11.1878 63.6372 10.5459 59.8571 10.5459Z" fill="white"/>
<path d="M37.7158 8.121H40.9966L40.747 10.2607L40.8183 10.2963C41.8882 8.47761 43.1363 7.80005 45.4543 7.80005C48.6281 7.80005 49.9476 9.29782 49.9476 12.9353C49.9476 13.0779 49.9476 13.6128 49.9119 14.1121H46.8094C46.8451 13.6128 46.8451 13.3275 46.8451 13.0066C46.8451 11.0809 46.2388 10.439 44.4558 10.439C42.9223 10.439 41.8525 11.0096 41.3533 12.0437C41.1036 12.65 40.9966 13.3632 40.9966 14.861V24.7748H37.7158V8.121Z" fill="white"/>
<path d="M33.6612 8.12085V24.7746H30.3803L30.5943 22.2427L30.523 22.207C29.6671 24.1327 28.0267 24.9886 25.1025 24.9886C21.1441 24.9886 19.4324 23.2768 19.4324 19.2471V8.12085H22.7132V18.7479C22.7132 21.6008 23.3551 22.314 26.0297 22.314C29.3462 22.314 30.3803 21.1728 30.3803 17.4284V8.12085H33.6612Z" fill="white"/>
<path d="M3.989 4.05563V11.1522H15.5789V13.9694H3.989V21.7079H16.1851V24.7748H0.351562V0.98877H16.1138V4.05563H3.989Z" fill="white"/>
</svg>
