<svg width="130" height="48" viewBox="0 0 130 48" fill="none" xmlns="http://www.w3.org/2000/svg">
<path d="M116.4 39.0508C114.628 39.0508 113.037 38.7073 111.627 38.0205C110.253 37.3334 109.15 36.4113 108.319 35.2541C107.523 34.0611 107.125 32.6869 107.125 31.1322C107.125 29.1072 107.776 27.4621 109.078 26.1965C110.38 24.9311 112.242 24.0632 114.664 23.5932L121.01 22.2916C122.276 22.0385 123.143 21.6407 123.613 21.0983C124.084 20.5559 124.319 19.7605 124.319 18.7119L124.969 25.0577L115.857 27.0101C114.628 27.2633 113.67 27.7153 112.983 28.3662C112.332 29.0171 112.007 29.9209 112.007 31.078C112.007 32.2711 112.459 33.2294 113.363 33.9526C114.303 34.6758 115.568 35.0374 117.159 35.0374C118.461 35.0374 119.654 34.7481 120.739 34.1695C121.86 33.591 122.728 32.7954 123.342 31.7831C123.993 30.7345 124.319 29.5412 124.319 28.2034V18.7119C124.319 17.4101 123.849 16.3978 122.908 15.6746C122.004 14.9152 120.757 14.5355 119.166 14.5355C117.141 14.5355 115.586 15.0418 114.502 16.0543C113.417 17.0666 112.784 18.4949 112.603 20.3389L107.83 19.6882C108.011 17.7717 108.59 16.1266 109.566 14.7525C110.542 13.3424 111.844 12.2576 113.471 11.4982C115.098 10.7391 117.033 10.3594 119.274 10.3594C122.456 10.3594 124.897 11.1728 126.597 12.8C128.296 14.427 129.146 16.5244 129.146 19.0916V38.2372H124.427V34.712C123.957 35.905 122.999 36.9356 121.553 37.8035C120.142 38.635 118.425 39.0508 116.4 39.0508Z" fill="white"/>
<path d="M68.6685 38.2372V11.1728H73.3872V14.2101C73.7488 13.1616 74.5442 12.2576 75.7736 11.4982C77.0029 10.7391 78.4312 10.3594 80.0582 10.3594C81.6493 10.3594 83.1136 10.7029 84.4516 11.3897C85.7895 12.0768 86.6572 13.1074 87.0549 14.4813C87.525 13.2159 88.3929 12.2214 89.6583 11.4982C90.9601 10.7391 92.4063 10.3594 93.9974 10.3594C96.7454 10.3594 98.8425 11.1547 100.289 12.7458C101.735 14.3366 102.458 16.6509 102.458 19.6882V38.2372H97.6313V20.3389C97.6313 18.5311 97.2336 17.175 96.438 16.2712C95.6786 15.3311 94.5579 14.861 93.0753 14.861C91.4482 14.861 90.1826 15.4395 89.2786 16.5967C88.411 17.7175 87.977 19.3628 87.977 21.5322V38.2372H83.1498V20.3389C83.1498 18.5311 82.7522 17.175 81.9567 16.2712C81.1973 15.3311 80.0763 14.861 78.5939 14.861C76.9667 14.861 75.7013 15.4395 74.7973 16.5967C73.9294 17.7175 73.4957 19.3628 73.4957 21.5322V38.2372H68.6685Z" fill="white"/>
<path d="M50.2112 48C46.8484 48 44.1185 47.2227 42.0212 45.6678C39.924 44.1131 38.5861 41.9435 38.0077 39.1593L42.7263 38.1289C43.1241 39.9006 43.9738 41.2745 45.2754 42.2508C46.5772 43.2633 48.2223 43.7696 50.2112 43.7696C52.5976 43.7696 54.3873 43.1549 55.5806 41.9254C56.8099 40.7323 57.4246 38.9423 57.4246 36.5559V32.2711C56.8822 33.609 55.8699 34.6939 54.3873 35.5254C52.9411 36.3571 51.3138 36.7729 49.506 36.7729C47.1196 36.7729 45.0223 36.2305 43.2145 35.1457C41.4064 34.0249 39.9964 32.47 38.9839 30.4814C37.9716 28.4927 37.4653 26.1965 37.4653 23.5932C37.4653 20.9536 37.9716 18.6396 38.9839 16.6509C39.9964 14.6621 41.3884 13.1255 43.1602 12.0406C44.9681 10.9197 47.0835 10.3594 49.506 10.3594C51.3138 10.3594 52.9592 10.7752 54.4415 11.6067C55.9603 12.4022 56.9907 13.3967 57.5331 14.5898V11.1728H62.2518V36.5559C62.2518 38.9423 61.7817 40.9854 60.8416 42.6848C59.9014 44.4203 58.5275 45.7401 56.7195 46.6442C54.9478 47.548 52.7784 48 50.2112 48ZM50.1027 32.4881C52.4167 32.4881 54.2607 31.6747 55.6348 30.0474C57.0449 28.4204 57.75 26.2688 57.75 23.5932C57.75 20.8813 57.0449 18.7119 55.6348 17.0846C54.2246 15.4576 52.3806 14.644 50.1027 14.644C47.7884 14.644 45.9263 15.4576 44.516 17.0846C43.1421 18.7119 42.4551 20.8813 42.4551 23.5932C42.4551 26.2688 43.1602 28.4204 44.5703 30.0474C45.9806 31.6747 47.8245 32.4881 50.1027 32.4881Z" fill="white"/>
<path d="M27.7239 38.2373V11.1728H32.551V38.2373H27.7239ZM27.6697 7.70161V0H32.6052V7.70161H27.6697Z" fill="white"/>
<path d="M0 38.2373V0H5.09824V38.2373H0ZM1.03058 22.0747V17.4644H21.8035V22.0747H1.03058ZM1.03058 4.66431V0H23.8102V4.66431H1.03058Z" fill="white"/>
</svg>
