<svg width="100" viewBox="0 0 126 68" fill="none" xmlns="http://www.w3.org/2000/svg" style="pointer-events: auto;"> <title>Frontend Horse</title> <path d="M106.7 33c-.7.1-1.2.7 0 1.3 2.5 1.2 4.7 4.8 3.7 11-1.6 10-11.9 13.6-19 14.4-14.5 1.6-30-3.6-41.6-1.9-5.9 1-10.3 4-12.2 8.7-.2.6.8 1 1.5.4 2.4-2 6.6-3.8 11.4-4.5 8.1-1.3 24.7.9 32.6 1a49 49 0 0 0 21.2-3.4c5.6-2.6 11-7.5 11.8-14 .3-3.4-.1-7.1-3-10-2.1-2.1-4.6-3-6.4-3Z" fill="#ffffff"></path> <path d="M7.4 34.2c2-1.5 3.2-4.8 3.8-7.1.6-2.7 1-3.9 1.7-6.4.6.5 3 1 5.5-.2 2.4-1.1 2.8-3.9 3-4.9 0-.5-.5-1-1-.5-2.5 2.2-5.5 1.3-6.5 1.4 1-3.3 2.1-7 2.6-8.1.3-.9.8-1.7 1.4-2.5l1.4.5 2.9 1.4c2 .8 4.3 1.3 6.5 1 9.2-1.1 8.2-7.6 8-8.4-.2-.4-.5-.5-.7-.3-1.6 1.9-4.6 3.8-12.8 3L16 2.4a29 29 0 0 0-7.1 0c-.8 0-1.5.3-2.2.5-2.8.7-5.5 2.6-6.4 5.4-.8 2.5.1 5.2 2.3 6.3a4.4 4.4 0 0 0 3.7.2.7.7 0 0 0 .2-1.1c-2.2-2-1.3-5.4.8-7 1.3-1 4-2.1 7-1.4h.1c-1.2 1-2 2.5-2.7 4-.8 1.6-1.4 3.4-2 5.1C8.3 18.8 5.5 29 3 32.1v.2c-.6.6-1.2 1.1-1.9 1.5-.3.2-.3.9 0 1 2.2.9 4.6.7 6.4-.6Z" fill="#ffffff"></path> <path d="M37 23.8c-.4.9-2.2 3-2.8 3.1-1 .2-1.2-.7-1.1-1.5.1-2 .8-6.1 1.3-8 .3-1.3.3-2.4-.6-2.5l-5.3-.7c0-.3 0-.5-.2-.7 0-.3-.3-.7-.6-1a2.6 2.6 0 0 0-2.2-.5c-1.8.4-2.8 2.5-2.2 4.2.2.5.5 1 .9 1.2l.4.3v.4c-.7 2.1-1.4 4.2-2.3 6.1-1 2.3-2.4 4.5-4.6 5.6-.5.3-.4 1 0 1.3 1.2.8 2.9.8 4.2.2 1.5-.6 2.1-1.9 2.8-3.3.8-1.6 3-10 3-10.8l1.4.4 1.3.2-1 5c-.2 1.9-.9 4 0 5.8.9 1.7 2.9 2.1 4.5 1.6 1-.4 1.7-1 2.3-1.7l1.5-2-.6-2.7Z" fill="#ffffff"></path> <path d="M121.3 15.4c-.4 0-.5.6-.2 1 1.9 2.2.2 8.6-2.5 6.8-1-.6-.8-1.8-.7-3.4.1-2.3 2.6-15 3-17.8 0-1-3.8-1.5-4-.6-.5 2.7-1.2 7.3-1.8 9.9-.9-1.9-4-2.6-5.7-1.9-3.2 1.3-6.3 6.3-6.3 11.5 0 5.4 2.9 5.5 4.3 5.4 3.7-.5 6-4.3 6.7-5.4 0 .2-.3 3.7 2.7 4.4 5.4 1.4 9-2.8 9.2-5.5.1-2.8-2.1-5.1-4.7-4.4Zm-12.9 7.2c-1.2-.6-1.2-4 .8-7.7 1.7-2.9 4.8-3 4.8-1.7 0 4.8-4.2 10-5.6 9.4Z" fill="#ffffff"></path> <path d="M103.3 21c-.7 2-2.3 3.6-3 1.7-.4-1 .6-5.8.7-6.8.4-2.6 0-5.2-1.8-5.7s-5 1.5-5.5 2.2l.1-1.5c0-.8-3.6-1-3.8 0-.3 1.1-2.5 14.7-2.6 15.4-.3 1.5 4 .7 4.1 0 .5-2 1.7-10 1.8-10.6.2-.9 2.7-3 3.8-2.5 1 .4-1.2 7.8-1 10.3.1 2.7 2.4 3.3 4 3 1.3-.2 3-1.5 4-3.3-.4-.7-.6-1.4-.8-2.1Z" fill="#ffffff"></path> <path d="M88.8 20.4c-1.2 2-4.2 4.4-6.3 4.4-3.3 0-3.5-3.2-3.6-4.2 3 .2 7-1 8-4.2.7-2.1 0-6.6-5-5.6-3.6.7-6.3 4.4-7 7.8-.7 3-.2 6.9 3.2 8.6 4.9 2.4 9.4-1.8 10.2-3.7.3-1.1.5-3.1.5-3.1Zm-5.4-6.9c.4.6.2 1.7 0 2.3-.7 1.6-2.7 2.7-4.4 3.1.6-4.7 3.8-6.2 4.4-5.4Z" fill="#ffffff" style="pointer-events: auto;"></path> <path d="M75.1 22.3c-1 1.7-3.2 3.2-4.1 2.8-.4-.3-.4-.7-.4-1.1 0-.6 1.8-10.8 2.3-12.7 1.3 0 2.5-.2 3.8-.6 2.3-.8 4.3-2.3 4.5-5 .1-.7-.5-.8-1-.4a15 15 0 0 1-4 2.3 8 8 0 0 1-2.6.4l1-4.3c.2-1.4-3.6-2.2-3.8-1.3l-1.2 5c-2-.4-7.3-3.9-12.2-5-3.9-1-11.6 0-12.2 7-.1 1 .4 1.3 1 .8 2-1.6 3.8-3 7.7-3.3 4.5-.2 11.8 3.8 14.8 3.9L66.2 23c-.3 2.4-.2 4.4 1.4 5.3 1 .5 2.7.4 3.7 0 1.2-.5 3.8-2 5.1-4.3.1-.2-1.2-1.9-1.3-1.7Z" fill="#ffffff"></path> <path d="M67.7 20.9c-.3 1.2-4.6 6-5 4.3-.7-2.2 2.5-9.2 1-11.7-.8-1.5-2.6-1.6-4-1-.8.3-2.7 2-3 2.1l.1-.8c0-.9-3.5-1.3-3.8-.2l-1.8 8c-.5.2-2.5.6-3.2.5l-.8 2.6c.8.1 3-.1 3.4-.5l-.8 4.1c-.1 1.2 3.8 1.4 4 0l2.4-10.7c.2-.6 2.5-2.5 3.2-2 .8.5.5 1.6.4 2.6-.1 1-1.6 7-1.4 8.3.4 3.4 4.1 2.2 5.4 1.3a14 14 0 0 0 4-4.3s.4-4.2 0-2.6Z" fill="#ffffff" style="pointer-events: auto;"></path> <path d="M48.6 21.3c.3-1.8.5-3.8 0-5.5-.6-1.6-2.2-3.5-4.5-3.5-1.6 0-3.1.5-4.3 1.5a10.7 10.7 0 0 0-3 5.3c-.3 1.3-1.2 5.6-.2 8 1 2.7 5 3.2 7 2.3 2.2-.9 4-3 5-8.1Zm-3.7-.5-.1.4c-.5-.1-1 0-1.5.1-.4.2-1 .8-.8 1.8 0 1 1.2 1.4 1.2 1.4-.2.6-1.2 3-2.5 2.8-2-.3-1-5.6-.5-7.6.4-1.6 1.8-5.5 3.5-5.3.8.1 1 1.4 1.1 2.2.1 1.4-.1 2.8-.4 4.2Z" fill="#ffffff"></path> <path d="M53.9 45c.4-2 .6-4.1 0-6.1-.6-1.8-2.4-4-5-4-1.8 0-3.5.7-4.9 1.8a12 12 0 0 0-3.3 6c-.4 1.4-1.3 6.2-.2 9 1 3 5.5 3.4 7.9 2.4 2.4-1 4.4-3.3 5.5-9Zm-4 .8-.2.5c-.5-.2-1.1-.1-1.6 0-.5.3-1 1-1 2.1.1 1.1 1.4 1.6 1.4 1.6-.2.6-1.4 2.1-2.9 1.8-2-.6-1.1-6.3-.5-8.6.4-1.8 2-6.1 3.9-5.9 1 .2 1.2 1.5 1.2 2.5.2 2 0 4-.4 6Z" fill="#ffffff"></path> <path d="M34.9 35.7c-1.3 4.4-2.6 9.2-3.6 13.6-.3 0-2 .6-3.4.7-1.5 0-3 0-3.7-.3l3.3-13.4c.1-.5-2.5-.7-5-.5a28 28 0 0 0-10.2 2.5 7.7 7.7 0 0 0-3.7 4.8c-.4 2 0 4.2 1.6 5.5 1.6 1.3 4 1.5 5.5.2.5-.4.3-.9-.4-1-1.2-.4-2.4-1.4-2.3-2.9 0-1.4 1-2.7 2-3.6 1.9-1.7 6.7-2.8 7-2.9-.3 1.2-3.7 14-4.6 16.9-.4 1.4-.8 2.8-1.4 4.1-.4 1.2-1 2.4-2 3.2-.9.6-2 1-3.1.8-1-.2-1.6-1-1.9-2-.5-2.6 2-5.6 4.7-4.3.5.3 1-.2 1-.7 0-1-1.7-2.6-4.8-2.8a5.8 5.8 0 0 0-5.1 2.7 6.2 6.2 0 0 0-.8 5.3c.6 1.9 2.3 4 6 4.6 4.6 1 7.8-1.5 9.4-3.5a19 19 0 0 0 3.1-7l.7-2.4c1.3.4 2.7.6 4 .5l3-.3-2.3 9.2c-.2 1.1.5 1.3 1 1.3 1 .3 2.3.3 3.5 0 1-.3 1-1 1.3-2L39 37.5c0-.5.3-1.2 0-1.7-.4-.4-4-.5-4.1 0Z" fill="#ffffff"></path> <path d="M70.7 46.7c-.4.7-3.1 5-4 3.4-.8-1.7 1.5-8 1.7-9.5.2-1.5.2-3.3-1.6-3.5-1.6-.2-3.2.2-4.8 0 0 0 .2-2.2-1.2-3-.8-.6-2.3-.5-3 .3-1 1.5-.7 4.5 1.2 5.2-.2.7-1 3.5-1.7 5-1 2-2.3 3.7-5.3 3.2 0 .9-1.4 2.8-1 2.9 4.2.6 6.2-.8 8-3.5a26.4 26.4 0 0 0 2.8-7.2c.3 0 1.8 0 2.3.2-.5 2-1.2 4.3-1.6 6.4-.4 1.8-.5 4.1 1 5.5 2 2 6.7.7 8.1-3 0-1.1-1-2.4-1-2.4Z" fill="#ffffff"></path> <path d="M99.7 40.5c-.5 0-1.1.3-.7.8 1.1 1.1 1 3 .4 4.7-1.1 3.2-4 3.4-5.4 2.6-2-1-3-3.8-3-6 1.7.4 4.4-1 5.9-2.2 1.6-1.4 3-4.3 1.8-6.5-1.1-2-3.9-1.9-5.7-1.1a10 10 0 0 0-4.7 4.3 11 11 0 0 0-1.3 7.8c.2.8 1 3 2.5 4.4 3.5 3 9.7 2.8 12.9-1.4 2.3-3 1.2-7.1-2.7-7.4Zm-5.8-5.3c1.5-.8 2-.1 1.9 1.5-.3 2.6-2.4 4.1-4.7 4.1 0 0 .2-4.2 2.8-5.6Z" fill="#ffffff"></path> <path d="M87.4 41.5c-1.7 3.6-4 5.3-4 5.3.2-2.3-.3-4.1-1.3-6.1-.8-1.7-1.6-2.8-1.8-4-.2-.8.3-2.2 1.1-2.2.4 0 1.3-.8.2-1.1-3.7-1-5.1 2.3-6.2 4C74 40 71.1 46 70.5 47c0 1.1.6.7.8 2.3.5 3.2 6 4 9.6 2.2 2.6-1.2 6.5-5.1 7.3-7-.4-.7-.5-2.2-.8-3Zm-7.9 6c0 1-1.3 2.9-3 2.6-1-.2-2.4-1.2-1.3-3.4.4-.8-.2-1.7-1-1.9l.7-1.4 1.5-3 .6-1.3.8 2c1.2 2 2 4.1 1.7 6.4Z" fill="#fff"></path> </svg>