<svg width="171" height="65" viewBox="0 0 171 65" fill="none" xmlns="http://www.w3.org/2000/svg">
<path fill-rule="evenodd" clip-rule="evenodd" d="M1.7498 1.27564C1.92911 1.10242 2.18685 1.03829 2.42603 1.1074L62.7994 18.5518C63.0389 18.621 63.2233 18.8132 63.2832 19.0559C63.3431 19.2986 63.2694 19.5549 63.0898 19.7282L17.7768 63.4726C17.5973 63.6458 17.3394 63.7098 17.1001 63.6405C16.8608 63.5711 16.6766 63.3788 16.6169 63.1362L1.55649 1.94739C1.4968 1.70489 1.57048 1.44886 1.7498 1.27564ZM3.19902 2.78666L17.6807 61.6241L61.2524 19.5607L3.19902 2.78666Z" fill="white"/>
<path fill-rule="evenodd" clip-rule="evenodd" d="M32.6021 9.8317C32.8414 9.90109 33.0257 10.0934 33.0854 10.3362L40.6102 40.9396C40.6698 41.1822 40.5961 41.4382 40.4167 41.6114C40.2373 41.7845 39.9796 41.8486 39.7404 41.7794L9.57045 33.0544C9.33113 32.9852 9.14679 32.7931 9.08689 32.5505C9.02698 32.3079 9.10061 32.0516 9.28004 31.8783L31.9252 9.99979C32.1047 9.82639 32.3627 9.7623 32.6021 9.8317ZM11.1169 32.0456L38.9678 40.1L32.0214 11.8489L11.1169 32.0456Z" fill="white"/>
<path fill-rule="evenodd" clip-rule="evenodd" d="M20.7016 20.8261C20.8808 20.6529 21.1383 20.5887 21.3774 20.6575L36.3664 24.9758C36.6058 25.0448 36.7904 25.2368 36.8505 25.4794C36.9106 25.722 36.8371 25.9783 36.6578 26.1518L25.4063 37.0363C25.2269 37.2099 24.9688 37.2741 24.7293 37.2048C24.4899 37.1355 24.3055 36.9431 24.2458 36.7003L20.5083 21.4975C20.4488 21.2551 20.5224 20.9992 20.7016 20.8261ZM22.1503 22.3358L25.3096 35.1867L34.8205 25.986L22.1503 22.3358Z" fill="white"/>
<path fill-rule="evenodd" clip-rule="evenodd" d="M17.6394 5.47373C17.8788 5.54307 18.0631 5.73544 18.1228 5.97827L21.8603 21.181C21.9199 21.4234 21.8463 21.6793 21.6671 21.8525C21.4879 22.0256 21.2304 22.0899 20.9913 22.021L6.00228 17.7027C5.76285 17.6337 5.57829 17.4418 5.51818 17.1992C5.45806 16.9566 5.53152 16.7002 5.71087 16.5267L16.9624 5.64219C17.1418 5.46861 17.3999 5.40438 17.6394 5.47373ZM7.5482 16.6925L20.2184 20.3427L17.0591 7.49186L7.5482 16.6925Z" fill="white"/>
<path fill-rule="evenodd" clip-rule="evenodd" d="M47.6162 14.14C47.8556 14.2093 48.0399 14.4017 48.0996 14.6445L51.8371 29.8473C51.8967 30.0897 51.8231 30.3456 51.6439 30.5187C51.4647 30.6919 51.2072 30.7561 50.9681 30.6872L35.9791 26.369C35.7397 26.3 35.5551 26.108 35.495 25.8654C35.4349 25.6228 35.5083 25.3664 35.6877 25.1929L46.9392 14.3085C47.1186 14.1349 47.3767 14.0706 47.6162 14.14ZM37.525 25.3588L50.1952 29.009L47.0359 16.1581L37.525 25.3588Z" fill="white"/>
<path fill-rule="evenodd" clip-rule="evenodd" d="M25.1176 35.8712C25.3571 35.9405 25.5414 36.1329 25.6011 36.3757L29.3386 51.5785C29.3982 51.8209 29.3245 52.0768 29.1454 52.2499C28.9662 52.4231 28.7086 52.4873 28.4695 52.4184L13.4806 48.1002C13.2411 48.0312 13.0566 47.8392 12.9964 47.5966C12.9363 47.354 13.0098 47.0976 13.1891 46.9241L24.4406 36.0397C24.6201 35.8661 24.8782 35.8018 25.1176 35.8712ZM15.0265 47.09L27.6966 50.7402L24.5373 37.8893L15.0265 47.09Z" fill="white"/>
<path d="M170.335 43.1875L166.839 43.5703C166.74 43.2158 166.567 42.8827 166.32 42.5708C166.08 42.2589 165.755 42.0073 165.345 41.8159C164.936 41.6245 164.434 41.5288 163.841 41.5288C163.043 41.5288 162.372 41.7025 161.828 42.0498C161.291 42.3971 161.026 42.8472 161.033 43.4001C161.026 43.8751 161.199 44.2614 161.553 44.5591C161.913 44.8568 162.506 45.1014 163.332 45.2928L166.108 45.8882C167.648 46.2214 168.792 46.7494 169.541 47.4725C170.297 48.1955 170.678 49.1418 170.685 50.3114C170.678 51.3392 170.378 52.2466 169.785 53.0334C169.198 53.8131 168.382 54.4227 167.337 54.8622C166.292 55.3017 165.091 55.5214 163.735 55.5214C161.743 55.5214 160.14 55.1032 158.925 54.2668C157.71 53.4232 156.986 52.2501 156.753 50.7473L160.493 50.3858C160.663 51.123 161.023 51.6795 161.574 52.0552C162.125 52.4309 162.842 52.6187 163.724 52.6187C164.636 52.6187 165.367 52.4309 165.917 52.0552C166.475 51.6795 166.754 51.2152 166.754 50.6623C166.754 50.1944 166.574 49.8081 166.214 49.5033C165.861 49.1985 165.31 48.9646 164.561 48.8016L161.786 48.2168C160.225 47.8907 159.07 47.3413 158.321 46.5687C157.572 45.789 157.202 44.8037 157.209 43.6128C157.202 42.6062 157.474 41.7344 158.025 40.9972C158.583 40.2529 159.356 39.6787 160.345 39.2747C161.341 38.8635 162.488 38.658 163.788 38.658C165.695 38.658 167.196 39.0655 168.291 39.8807C169.393 40.6959 170.074 41.7982 170.335 43.1875Z" fill="white"/>
<path d="M149.695 38.8706H153.53V56.1381C153.53 57.3148 153.307 58.2859 152.862 59.0515C152.417 59.817 151.775 60.3877 150.934 60.7633C150.094 61.139 149.073 61.3269 147.872 61.3269C147.731 61.3269 147.6 61.3233 147.48 61.3162C147.36 61.3162 147.23 61.3127 147.088 61.3056V58.169C147.194 58.1761 147.29 58.1796 147.374 58.1796C147.459 58.1867 147.547 58.1902 147.639 58.1902C148.374 58.1902 148.9 58.0095 149.218 57.648C149.536 57.2935 149.695 56.7725 149.695 56.085V38.8706ZM151.602 36.5527C150.987 36.5527 150.461 36.3507 150.023 35.9466C149.592 35.5355 149.377 35.0428 149.377 34.4687C149.377 33.8874 149.592 33.3948 150.023 32.9907C150.461 32.5796 150.987 32.374 151.602 32.374C152.209 32.374 152.728 32.5796 153.159 32.9907C153.597 33.3948 153.816 33.8874 153.816 34.4687C153.816 35.0428 153.597 35.5355 153.159 35.9466C152.728 36.3507 152.209 36.5527 151.602 36.5527Z" fill="white"/>
<path d="M143.404 55.4364C142.761 55.4364 142.21 55.2096 141.751 54.7559C141.292 54.3023 141.066 53.7494 141.073 53.0972C141.066 52.4593 141.292 51.9135 141.751 51.4598C142.21 51.0061 142.761 50.7793 143.404 50.7793C144.026 50.7793 144.566 51.0061 145.025 51.4598C145.491 51.9135 145.728 52.4593 145.735 53.0972C145.728 53.5296 145.615 53.923 145.396 54.2775C145.184 54.6319 144.901 54.9154 144.548 55.1281C144.202 55.3336 143.821 55.4364 143.404 55.4364Z" fill="white"/>
<path d="M130.561 55.5214C128.929 55.5214 127.52 55.1812 126.334 54.5007C125.154 53.8131 124.246 52.842 123.611 51.5873C122.975 50.3256 122.657 48.8405 122.657 47.1322C122.657 45.4523 122.975 43.9779 123.611 42.709C124.253 41.4331 125.15 40.4407 126.302 39.7319C127.453 39.0159 128.806 38.658 130.359 38.658C131.362 38.658 132.309 38.821 133.199 39.1471C134.096 39.466 134.887 39.9622 135.572 40.6356C136.264 41.309 136.808 42.1668 137.204 43.2088C137.599 44.2437 137.797 45.4771 137.797 46.9089V48.0892H124.458V45.4948H134.121C134.113 44.7576 133.955 44.1019 133.644 43.5277C133.333 42.9465 132.899 42.4893 132.341 42.1561C131.79 41.823 131.147 41.6564 130.412 41.6564C129.628 41.6564 128.94 41.8478 128.347 42.2305C127.753 42.6062 127.291 43.1024 126.959 43.7191C126.634 44.3287 126.468 44.9986 126.461 45.7287V47.9935C126.461 48.9433 126.634 49.7585 126.98 50.439C127.326 51.1124 127.81 51.6299 128.431 51.9914C129.053 52.3458 129.78 52.523 130.614 52.523C131.172 52.523 131.677 52.445 132.129 52.2891C132.581 52.1261 132.973 51.8886 133.305 51.5767C133.637 51.2648 133.887 50.8785 134.057 50.4177L137.638 50.8218C137.412 51.7716 136.981 52.601 136.345 53.3098C135.717 54.0116 134.912 54.5574 133.93 54.9473C132.948 55.33 131.825 55.5214 130.561 55.5214Z" fill="white"/>
<path d="M112.876 55.5214C111.244 55.5214 109.835 55.1812 108.648 54.5007C107.469 53.8131 106.561 52.842 105.926 51.5873C105.29 50.3256 104.972 48.8405 104.972 47.1322C104.972 45.4523 105.29 43.9779 105.926 42.709C106.568 41.4331 107.465 40.4407 108.617 39.7319C109.768 39.0159 111.121 38.658 112.674 38.658C113.677 38.658 114.624 38.821 115.514 39.1471C116.411 39.466 117.202 39.9622 117.887 40.6356C118.579 41.309 119.123 42.1668 119.519 43.2088C119.914 44.2437 120.112 45.4771 120.112 46.9089V48.0892H106.773V45.4948H116.435C116.428 44.7576 116.27 44.1019 115.959 43.5277C115.648 42.9465 115.214 42.4893 114.656 42.1561C114.105 41.823 113.462 41.6564 112.727 41.6564C111.943 41.6564 111.255 41.8478 110.661 42.2305C110.068 42.6062 109.606 43.1024 109.274 43.7191C108.949 44.3287 108.783 44.9986 108.776 45.7287V47.9935C108.776 48.9433 108.949 49.7585 109.295 50.439C109.641 51.1124 110.125 51.6299 110.746 51.9914C111.368 52.3458 112.095 52.523 112.929 52.523C113.487 52.523 113.992 52.445 114.444 52.2891C114.896 52.1261 115.288 51.8886 115.62 51.5767C115.952 51.2648 116.202 50.8785 116.372 50.4177L119.953 50.8218C119.727 51.7716 119.296 52.601 118.66 53.3098C118.032 54.0116 117.227 54.5574 116.245 54.9473C115.263 55.33 114.14 55.5214 112.876 55.5214Z" fill="white"/>
<path d="M94.5127 55.2025V38.8706H98.2314V41.5926H98.4009C98.6976 40.6498 99.2061 39.9233 99.9265 39.4129C100.654 38.8954 101.484 38.6367 102.416 38.6367C102.628 38.6367 102.865 38.6474 103.126 38.6686C103.394 38.6828 103.617 38.7076 103.794 38.743V42.2837C103.631 42.227 103.373 42.1774 103.02 42.1349C102.674 42.0853 102.339 42.0604 102.014 42.0604C101.314 42.0604 100.686 42.2129 100.128 42.5177C99.5769 42.8154 99.1425 43.23 98.8247 43.7617C98.5069 44.2933 98.3479 44.9065 98.3479 45.6011V55.2025H94.5127Z" fill="white"/>
<path d="M80.0511 45.6331V55.2025H76.2158V33.4268H79.9663V41.6458H80.157C80.5384 40.7243 81.1282 39.9978 81.9263 39.4661C82.7315 38.9274 83.7556 38.658 84.9987 38.658C86.1288 38.658 87.1141 38.8955 87.9546 39.3704C88.7951 39.8454 89.4449 40.54 89.904 41.4544C90.3702 42.3689 90.6033 43.4853 90.6033 44.8038V55.2025H86.768V45.3992C86.768 44.3005 86.4855 43.4463 85.9205 42.8367C85.3625 42.22 84.5785 41.9117 83.5685 41.9117C82.8904 41.9117 82.283 42.0605 81.7462 42.3582C81.2165 42.6489 80.7997 43.0706 80.496 43.6235C80.1994 44.1764 80.0511 44.8463 80.0511 45.6331Z" fill="white"/>
<path d="M72.6587 38.8706V41.8478H63.3037V38.8706H72.6587ZM65.6133 34.9578H69.4486V50.2901C69.4486 50.8076 69.5263 51.2045 69.6816 51.481C69.8441 51.7503 70.056 51.9346 70.3173 52.0339C70.5787 52.1331 70.8682 52.1827 71.1861 52.1827C71.4262 52.1827 71.6452 52.165 71.8429 52.1296C72.0478 52.0941 72.2032 52.0622 72.3091 52.0339L72.9554 55.0429C72.7505 55.1138 72.4574 55.1918 72.076 55.2769C71.7017 55.3619 71.2426 55.4115 70.6987 55.4257C69.7382 55.4541 68.8729 55.3088 68.1031 54.9898C67.3332 54.6637 66.7222 54.1604 66.2702 53.4799C65.8252 52.7994 65.6063 51.9488 65.6133 50.9281V34.9578Z" fill="white"/>
</svg>
