<svg width="32" height="32" viewBox="0 0 32 32" fill="none" xmlns="http://www.w3.org/2000/svg">
<g clip-path="url(#clip0_26_4)">
<mask id="mask0_26_4" style="mask-type:alpha" maskUnits="userSpaceOnUse" x="2" y="2" width="28" height="28">
<path d="M29.2432 25.9475C28.991 27.4123 28.1492 28.5436 27.0684 28.8518C25.2932 29.3626 21.9851 30 16.5349 30C10.8129 30 6.9742 29.2993 4.90747 28.78C3.76437 28.493 2.86693 27.2857 2.64421 25.728C2.12998 22.1483 1.48474 14.9932 2.67041 6.05668C2.88986 4.40193 3.86918 3.13131 5.09088 2.91603C7.29519 2.52344 11.2321 2 16.5349 2C21.5658 2 24.9361 2.47279 26.8457 2.8527C28.0215 3.0891 28.9615 4.3175 29.2006 5.90894C30.6189 15.3225 29.836 22.4945 29.2432 25.9475Z" fill="#2F7889"/>
</mask>
<g mask="url(#mask0_26_4)">
<path d="M2 2H6V20.6667H2V2Z" fill="white"/>
<path d="M6 2H10V20.6667H6V2Z" fill="#FFFF00"/>
<path d="M9.99988 2H13.9999V20.6667H9.99988V2Z" fill="#00FFFF"/>
<path d="M13.9999 2H17.9999V20.6667H13.9999V2Z" fill="#00FF00"/>
<path d="M18.0001 2H22.0001V20.6667H18.0001V2Z" fill="#FF00FF"/>
<path d="M22.0001 2H26.0001V20.6667H22.0001V2Z" fill="#FF0000"/>
<path d="M25.9999 2H29.9999V20.6667H25.9999V2Z" fill="#0000FF"/>
<path d="M9.99988 20.6667H13.9999V23.0001H9.99988V20.6667Z" fill="#FF00FF"/>
<path d="M6 20.6667H2V23.0001H6V20.6667Z" fill="#0000C0"/>
<path d="M10 20.6667H6V23.0001H10V20.6667Z" fill="#131313"/>
<path d="M17.9999 20.6667H13.9999V23.0001H17.9999V20.6667Z" fill="#131313"/>
<path d="M26.0001 20.6667H22.0001V23.0001H26.0001V20.6667Z" fill="#131313"/>
<path d="M29.9999 23H25.9999V30H29.9999V23Z" fill="#131313"/>
<path d="M24.6666 23H23.3333V30H24.6666V23Z" fill="#131313"/>
<path d="M21.9999 23H16.9999V30H21.9999V23Z" fill="#131313"/>
<path d="M18.0001 20.6667H22.0001V23.0001H18.0001V20.6667Z" fill="#00FFFF"/>
<path d="M25.9999 20.6667H29.9999V23.0001H25.9999V20.6667Z" fill="white"/>
<path d="M2 23H7V30H2V23Z" fill="#00214C"/>
<path d="M6.99988 23H11.9999V30H6.99988V23Z" fill="#C0C0C0"/>
<path d="M12 23H17V30H12V23Z" fill="#32006A"/>
<path d="M22.0001 23H23.3335V30H22.0001V23Z" fill="black"/>
<path d="M24.6666 23H26V30H24.6666V23Z" fill="#1D1D1D"/>
<path d="M29.2432 25.9475C28.991 27.4123 28.1492 28.5436 27.0684 28.8518C25.2932 29.3626 21.9851 30 16.5349 30C10.8129 30 6.9742 29.2993 4.90747 28.78C3.76437 28.493 2.86693 27.2857 2.64421 25.728C2.12998 22.1483 1.48474 14.9932 2.67041 6.05668C2.88986 4.40193 3.86918 3.13131 5.09088 2.91603C7.29519 2.52344 11.2321 2 16.5349 2C21.5658 2 24.9361 2.47279 26.8457 2.8527C28.0215 3.0891 28.9615 4.3175 29.2006 5.90894C30.6189 15.3225 29.836 22.4945 29.2432 25.9475Z" fill="url(#paint0_linear_26_4)"/>
</g>
</g>
<defs>
<linearGradient id="paint0_linear_26_4" x1="16" y1="2" x2="16" y2="30" gradientUnits="userSpaceOnUse">
<stop offset="0.336538" stop-opacity="0"/>
<stop offset="0.682692" stop-opacity="0.15"/>
<stop offset="1" stop-opacity="0.5"/>
</linearGradient>
<clipPath id="clip0_26_4">
<rect width="32" height="32" fill="white"/>
</clipPath>
</defs>
</svg>
